<?xml version="1.0" encoding="utf-8"?>
<!-- Generator: Adobe Illustrator 16.0.0, SVG Export Plug-In . SVG Version: 6.00 Build 0)  -->
<!DOCTYPE svg PUBLIC "-//W3C//DTD SVG 1.1//EN" "http://www.w3.org/Graphics/SVG/1.1/DTD/svg11.dtd">
<svg version="1.1" id="Layer_1" xmlns="http://www.w3.org/2000/svg" xmlns:xlink="http://www.w3.org/1999/xlink" x="0px" y="0px"
	 width="283.465px" height="283.464px" viewBox="0 0 283.465 283.464" enable-background="new 0 0 283.465 283.464"
	 xml:space="preserve">
<g id="Facebook" display="none">
	<path display="inline" fill="#FFFFFF" d="M82.732,100.532h27V88.283v-12v-2.001c0-11.55,0.298-29.4,8.698-40.449
		c8.85-11.702,21-19.65,41.901-19.65c34.048,0,48.399,4.849,48.399,4.849l-6.75,40.001c0,0-11.25-3.251-21.75-3.251
		s-19.899,3.75-19.899,14.25v4.25v14.001v12.249h43.048l-3,39.05h-40.048v135.701h-50.6V139.582h-27L82.732,100.532L82.732,100.532z
		"/>
</g>
<g id="Twitter" display="none">
	<path display="inline" fill="#FFFFFF" d="M270.232,67.508c-9.162,4.063-19.008,6.809-29.34,8.044
		c10.545-6.322,18.646-16.333,22.461-28.263c-9.871,5.855-20.809,10.106-32.44,12.396c-9.317-9.928-22.595-16.131-37.288-16.131
		c-28.212,0-51.085,22.872-51.085,51.084c0,4.003,0.451,7.903,1.321,11.642c-42.458-2.131-80.099-22.468-105.294-53.376
		c-4.397,7.545-6.917,16.32-6.917,25.683c0,17.724,9.018,33.359,22.726,42.521c-8.374-0.266-16.251-2.564-23.138-6.391
		c-0.005,0.214-0.005,0.427-0.005,0.643c0,24.751,17.609,45.397,40.978,50.093c-4.286,1.166-8.799,1.791-13.458,1.791
		c-3.292,0-6.492-0.32-9.612-0.916c6.501,20.295,25.368,35.065,47.721,35.479c-17.483,13.7-39.51,21.866-63.445,21.866
		c-4.124,0-8.189-0.239-12.186-0.715c22.607,14.494,49.46,22.953,78.309,22.953c93.965,0,145.349-77.846,145.349-145.353
		c0-2.214-0.05-4.417-0.146-6.609C254.725,86.75,263.384,77.752,270.232,67.508z"/>
</g>
<g id="YouTube" display="none">
	<g display="inline">
		<g>
			<path fill="#FFFFFF" d="M45.986,4h19.889l12.813,51.103h1.24L92.146,4h20.064L89.23,78.799v53.049H69.48V81.187L45.986,4z"/>
			<path fill="#FFFFFF" d="M111.315,59.098c0-7.304,2.359-13.119,7.081-17.448c4.722-4.331,11.064-6.496,19.034-6.496
				c7.255,0,13.202,2.284,17.835,6.849c4.635,4.565,6.952,10.44,6.952,17.629v48.709c0,8.073-2.276,14.406-6.819,19
				c-4.543,4.595-10.801,6.891-18.771,6.891c-7.671,0-13.811-2.371-18.411-7.111c-4.604-4.741-6.906-11.12-6.906-19.132
				L111.315,59.098L111.315,59.098z M129.36,109.755c0,2.598,0.622,4.6,1.872,6.014c1.249,1.415,3.031,2.121,5.352,2.121
				c2.377,0,4.265-0.722,5.661-2.166c1.397-1.444,2.097-3.433,2.097-5.969V58.391c0-2.061-0.716-3.726-2.143-4.992
				c-1.424-1.267-3.296-1.903-5.615-1.903c-2.141,0-3.879,0.636-5.218,1.903c-1.339,1.266-2.006,2.931-2.006,4.992V109.755
				L129.36,109.755z"/>
			<path fill="#FFFFFF" d="M227.15,37.538v94.31h-17.534v-10.411c-3.231,3.837-6.595,6.759-10.089,8.766
				c-3.495,2.003-6.892,3.008-10.178,3.008c-4.058,0-7.111-1.401-9.168-4.21c-2.06-2.806-3.082-7.02-3.082-12.635V37.538h17.537
				v72.295c0,2.237,0.359,3.853,1.1,4.854c0.734,1.001,1.924,1.502,3.57,1.502c1.293,0,2.918-0.663,4.889-1.986
				c1.968-1.327,3.771-3.018,5.421-5.078V37.538H227.15z"/>
		</g>
		<g>
			<path fill="#FFFFFF" d="M93.069,172.587H44v15.021h16.541v88.49H76.53V187.61h16.539V172.587z M119.201,257.701
				c-1.331,1.672-2.795,3.041-4.388,4.112c-1.594,1.071-2.912,1.606-3.961,1.606c-1.331,0-2.295-0.403-2.889-1.217
				c-0.594-0.81-0.892-2.115-0.892-3.931V199.74H92.876v63.823c0,4.548,0.832,7.955,2.497,10.231c1.664,2.271,4.14,3.406,7.42,3.406
				c2.664,0,5.41-0.812,8.238-2.437c2.833-1.626,5.554-3.991,8.17-7.103v8.434h14.197V199.74h-14.197V257.701z M174.209,198.774
				c-2.201,0-4.377,0.606-6.531,1.819c-2.15,1.218-4.18,2.984-6.093,5.314v-33.32h-14.336V276.1h14.336v-5.869
				c1.865,2.324,3.888,4.044,6.06,5.16c2.176,1.116,4.65,1.674,7.426,1.674c4.205,0,7.425-1.438,9.646-4.319
				c2.223-2.881,3.335-7.037,3.335-12.467v-42.361c0-6.232-1.185-10.985-3.553-14.25
				C182.132,200.41,178.701,198.774,174.209,198.774z M173.439,258.203c0,2.435-0.412,4.19-1.229,5.262
				c-0.819,1.074-2.095,1.609-3.83,1.609c-1.206,0-2.351-0.271-3.435-0.822c-1.086-0.545-2.207-1.438-3.36-2.685v-47.584
				c0.965-1.05,1.938-1.823,2.929-2.325c0.985-0.5,1.986-0.752,2.998-0.752c1.924,0,3.396,0.668,4.407,2.006
				c1.017,1.334,1.521,3.289,1.521,5.864V258.203L173.439,258.203z M240.521,239.712v-19.441c0-7.248-1.744-12.801-5.229-16.665
				c-3.485-3.862-8.478-5.794-14.974-5.794c-6.354,0-11.534,2.087-15.543,6.258c-4.02,4.172-6.021,9.572-6.021,16.201v34.271
				c0,7.353,1.83,13.127,5.48,17.326c3.651,4.193,8.656,6.299,15.011,6.299c7.067,0,12.381-1.983,15.938-5.943
				c3.559-3.96,5.334-9.855,5.334-17.682v-5.733H225.91v5.306c0,4.492-0.471,7.399-1.406,8.715
				c-0.938,1.312-2.584,1.969-4.936,1.969c-2.269,0-3.859-0.771-4.799-2.329c-0.938-1.554-1.404-4.339-1.404-8.354v-14.402H240.521
				L240.521,239.712z M213.367,220.128c0-3.195,0.492-5.485,1.48-6.871c0.979-1.387,2.604-2.077,4.859-2.077
				c2.162,0,3.73,0.69,4.727,2.077c0.979,1.386,1.479,3.676,1.479,6.871v7.729h-12.545V220.128L213.367,220.128z"/>
			<path fill="#FFFFFF" d="M93.069,173.69H44v15.024h16.541v88.486H76.53v-88.486h16.539V173.69z M119.201,258.805
				c-1.331,1.669-2.795,3.04-4.388,4.11c-1.594,1.067-2.912,1.604-3.961,1.604c-1.331,0-2.295-0.4-2.889-1.213
				c-0.594-0.812-0.892-2.119-0.892-3.934v-58.537H92.876v63.828c0,4.545,0.832,7.957,2.497,10.229
				c1.664,2.271,4.14,3.406,7.42,3.406c2.664,0,5.41-0.812,8.238-2.432c2.833-1.628,5.554-3.994,8.17-7.101v8.427h14.197v-76.359
				h-14.197V258.805z M174.209,199.878c-2.201,0-4.377,0.604-6.531,1.812c-2.15,1.221-4.18,2.988-6.093,5.312V173.69h-14.336
				v103.513h14.336v-5.869c1.865,2.324,3.888,4.045,6.06,5.164c2.176,1.111,4.65,1.67,7.426,1.67c4.205,0,7.425-1.437,9.646-4.318
				c2.223-2.883,3.335-7.034,3.335-12.467V219.02c0-6.235-1.185-10.989-3.553-14.247
				C182.132,201.511,178.701,199.878,174.209,199.878z M173.439,259.307c0,2.433-0.412,4.188-1.229,5.261
				c-0.819,1.072-2.095,1.607-3.83,1.607c-1.206,0-2.351-0.271-3.435-0.82c-1.086-0.547-2.207-1.443-3.36-2.688v-47.582
				c0.965-1.051,1.938-1.826,2.929-2.328c0.985-0.498,1.986-0.75,2.998-0.75c1.924,0,3.396,0.668,4.407,2.006
				c1.017,1.336,1.521,3.289,1.521,5.863V259.307L173.439,259.307z M240.521,240.813v-19.438c0-7.248-1.744-12.801-5.229-16.668
				c-3.485-3.857-8.478-5.793-14.974-5.793c-6.354,0-11.534,2.088-15.543,6.26c-4.02,4.178-6.021,9.572-6.021,16.201v34.271
				c0,7.352,1.83,13.126,5.48,17.326c3.651,4.197,8.656,6.298,15.011,6.298c7.067,0,12.381-1.981,15.938-5.942
				c3.559-3.957,5.334-9.854,5.334-17.682v-5.736H225.91v5.307c0,4.496-0.471,7.402-1.406,8.718c-0.938,1.312-2.584,1.97-4.936,1.97
				c-2.269,0-3.859-0.771-4.799-2.326c-0.938-1.555-1.404-4.341-1.404-8.355v-14.401L240.521,240.813L240.521,240.813z
				 M213.367,221.23c0-3.195,0.492-5.484,1.48-6.869c0.979-1.386,2.604-2.078,4.859-2.078c2.162,0,3.73,0.692,4.727,2.078
				c0.979,1.385,1.479,3.674,1.479,6.869v7.73h-12.545V221.23L213.367,221.23z"/>
		</g>
	</g>
</g>
<g id="RSS">
	<g id="lines__x003C_Group_x003E_">
		<path id="circle" fill="#3D3D3D" d="M91.757,220.423c0,15.758-12.778,28.527-28.533,28.527c-15.753,0-28.531-12.771-28.531-28.527
			c0-15.762,12.778-28.537,28.531-28.537C78.979,191.886,91.757,204.664,91.757,220.423z"/>
		<g>
			<path fill="#3D3D3D" d="M34.726,148.49c26.738,0,51.864,10.449,70.752,29.426c18.917,19.008,29.333,44.31,29.333,71.236h41.193
				c0-78.219-63.378-141.857-141.278-141.857V148.49z"/>
		</g>
		<g>
			<path fill="#3D3D3D" d="M34.786,75.462c95.278,0,172.793,77.937,172.793,173.733h41.194
				c0-118.509-95.996-214.927-213.987-214.927V75.462z"/>
		</g>
	</g>
</g>
</svg>
