<?xml version="1.0" encoding="utf-8"?>
<!-- Generator: Adobe Illustrator 16.0.0, SVG Export Plug-In . SVG Version: 6.00 Build 0)  -->
<!DOCTYPE svg PUBLIC "-//W3C//DTD SVG 1.1//EN" "http://www.w3.org/Graphics/SVG/1.1/DTD/svg11.dtd">
<svg version="1.1" id="Layer_1" xmlns="http://www.w3.org/2000/svg" xmlns:xlink="http://www.w3.org/1999/xlink" x="0px" y="0px"
	 width="283.465px" height="283.464px" viewBox="0 0 283.465 283.464" enable-background="new 0 0 283.465 283.464"
	 xml:space="preserve">
<g id="Facebook" display="none">
	<path display="inline" fill="#FFFFFF" d="M82.732,100.532h27V88.283v-12v-2.001c0-11.55,0.298-29.4,8.698-40.449
		c8.85-11.702,21-19.65,41.901-19.65c34.048,0,48.399,4.849,48.399,4.849l-6.75,40.001c0,0-11.25-3.251-21.75-3.251
		s-19.899,3.75-19.899,14.25v4.25v14.001v12.249h43.048l-3,39.05h-40.048v135.701h-50.6V139.582h-27L82.732,100.532L82.732,100.532z
		"/>
</g>
<g id="Twitter" display="none">
	<path display="inline" fill="#FFFFFF" d="M270.232,67.508c-9.162,4.063-19.008,6.809-29.34,8.044
		c10.545-6.322,18.646-16.333,22.461-28.263c-9.871,5.855-20.81,10.106-32.44,12.396c-9.317-9.928-22.595-16.131-37.288-16.131
		c-28.212,0-51.085,22.872-51.085,51.084c0,4.003,0.451,7.903,1.321,11.642c-42.458-2.131-80.099-22.468-105.294-53.376
		c-4.397,7.545-6.917,16.32-6.917,25.683c0,17.724,9.018,33.359,22.726,42.521c-8.374-0.266-16.251-2.564-23.138-6.391
		c-0.005,0.214-0.005,0.427-0.005,0.643c0,24.751,17.609,45.397,40.978,50.093c-4.286,1.166-8.799,1.791-13.458,1.791
		c-3.292,0-6.492-0.32-9.612-0.916c6.501,20.295,25.368,35.065,47.721,35.479c-17.483,13.7-39.51,21.866-63.445,21.866
		c-4.124,0-8.189-0.239-12.186-0.715c22.607,14.494,49.46,22.953,78.309,22.953c93.965,0,145.349-77.847,145.349-145.354
		c0-2.214-0.05-4.417-0.146-6.609C254.725,86.75,263.384,77.752,270.232,67.508z"/>
</g>
<path fill="#3D3D3D" d="M182.74,124.287c-11.912,8.707-28.418,13.073-49.854,13.073h-9.689c-8.535,0-13.923-6.767-12.042-15.084
	l11.892-51.255c1.81-8.252,10.329-15.107,18.87-15.026l12.925-0.081c15.104,0,26.588,2.588,34.334,7.727
	c7.631,5.005,11.51,12.905,11.373,23.528C200.775,103.165,194.71,115.551,182.74,124.287 M268.05,45.292
	c-4.911-9.58-12.269-17.359-21.663-23.23c-9.744-6.017-21.086-10.16-34.296-12.661c-13.294-2.381-28.819-3.549-46.635-3.711
	L82.98,5.748c-8.571,0.104-16.966,6.826-18.948,15.066L8.424,262.583c-1.917,8.267,3.438,15.104,11.973,15.104h39.512
	c8.542,0,17.008-6.656,18.925-15.104l13.619-58.679c1.816-8.198,10.261-14.985,18.825-14.985h11.292
	c48.323-0.053,85.797-9.939,112.735-29.721c26.893-19.748,40.342-45.92,40.277-78.288C275.646,66.689,273.188,54.793,268.05,45.292"
	/>
</svg>
