<?xml version="1.0" encoding="utf-8"?>
<!-- Generator: Adobe Illustrator 16.0.0, SVG Export Plug-In . SVG Version: 6.00 Build 0)  -->
<!DOCTYPE svg PUBLIC "-//W3C//DTD SVG 1.1//EN" "http://www.w3.org/Graphics/SVG/1.1/DTD/svg11.dtd">
<svg version="1.1"
	 id="svg2" xmlns:cc="http://creativecommons.org/ns#" xmlns:rdf="http://www.w3.org/1999/02/22-rdf-syntax-ns#" xmlns:dc="http://purl.org/dc/elements/1.1/" xmlns:svg="http://www.w3.org/2000/svg" xmlns:inkscape="http://www.inkscape.org/namespaces/inkscape" xmlns:sodipodi="http://sodipodi.sourceforge.net/DTD/sodipodi-0.dtd"
	 xmlns="http://www.w3.org/2000/svg" xmlns:xlink="http://www.w3.org/1999/xlink" x="0px" y="0px" width="26px" height="26px"
	 viewBox="0 0 26 26" enable-background="new 0 0 26 26" xml:space="preserve">
<script  xlink:href="" id="script3301"></script>
<script  xlink:href="" id="script3299"></script>
<path id="path3538" fill="#3D3D3D" d="M18.695,25.833c-0.986-0.26-1.885-0.812-3.822-2.297c-1.953-1.504-5.074-4.04-7.5-6.917
	c-2.427-2.879-4.143-6.065-5.06-8.017c-0.92-1.956-1.08-2.743-1.099-3.618C1.2,4.167,1.296,3.199,1.966,2.272
	c0.628-0.875,1.748-1.68,2.562-2.023C5.434-0.14,6.037,0.006,6.477,0.165c0.421,0.156,0.738,0.33,1.201,0.759
	c0.433,0.406,1.03,1.06,1.519,1.745c0.496,0.684,0.884,1.399,1.149,2.009c0.27,0.616,0.423,1.156,0.454,1.729
	c0.027,0.569-0.076,1.279-0.707,1.813C9.584,8.649,8.691,8.964,8.309,9.182C8.234,9.225,8.191,9.255,8.152,9.293
	C8.13,9.413,8.148,9.614,8.343,10.08c0.426,1.007,1.476,2.78,2.818,4.238c1.328,1.459,2.953,2.605,3.995,3.332
	c0.816,0.563,1.201,0.824,1.426,0.951l0.178,0.084l0.154-0.166c0.079-0.095,0.193-0.229,0.375-0.437
	c0.316-0.353,0.947-1.054,1.838-1.219c0.893-0.154,1.876,0.245,2.7,0.821c0.846,0.594,1.621,1.443,2.2,2.338
	c0.554,0.871,1.046,2,0.562,3.144c-0.451,1.062-1.689,1.979-2.746,2.425C20.725,26.07,19.68,26.096,18.695,25.833z"/>
</svg>
